<?xml version="1.0" encoding="UTF-8" standalone="no"?> <svg id="icon" xmlns="http://www.w3.org/2000/svg" viewBox="0 0 512 512"><title>french fries</title><path d="M160.75,138.215h.035a5.39,5.39,0,0,0,5.356-5.424c-.092-14.6.058-29.022.443-42.878A10.039,10.039,0,0,1,176.659,80.1h7.717c-.035,6.241-.073,17.441-.011,31.474a5.39,5.39,0,0,0,5.39,5.366h.023a5.389,5.389,0,0,0,5.366-5.414c-.095-21.72.049-36.614.051-36.762a5.391,5.391,0,0,0-5.39-5.444H176.659a20.761,20.761,0,0,0-20.849,20.3c-.391,13.979-.541,28.529-.449,43.247A5.389,5.389,0,0,0,160.75,138.215Z"/><path d="M316.568,111.558a5.391,5.391,0,0,0,10.781.047c.061-14.049.023-25.264-.012-31.51h9.657a8.03,8.03,0,0,1,8.077,7.818c.416,14.017.587,28.621.509,43.4a5.39,5.39,0,0,0,5.361,5.418h.03a5.39,5.39,0,0,0,5.389-5.361c.079-14.909-.094-29.639-.514-43.781a18.759,18.759,0,0,0-18.852-18.278H321.909a5.39,5.39,0,0,0-5.39,5.444C316.521,74.907,316.665,89.811,316.568,111.558Z"/><path d="M269.46,95.782h0a5.391,5.391,0,0,0,5.389-5.392c0-15.3-.316-27.714-.926-37.034h11.21a10.794,10.794,0,0,1,10.77,10.7c.089,14.98.1,30.317.031,45.584a5.391,5.391,0,0,0,5.367,5.414h.023a5.391,5.391,0,0,0,5.391-5.365c.068-15.305.057-30.68-.032-45.7a21.6,21.6,0,0,0-21.55-21.414H268.093a5.389,5.389,0,0,0-5.366,5.9c.885,9.359,1.337,23.463,1.343,41.918A5.39,5.39,0,0,0,269.46,95.782Z"/><path d="M275.016,250.572c.177,0,.357-.009.538-.027a5.39,5.39,0,0,0,4.832-5.9c-1.675-16.887-3.811-34.075-6.348-51.088a5.389,5.389,0,0,0-10.661,1.59c2.51,16.839,4.623,33.851,6.281,50.562A5.392,5.392,0,0,0,275.016,250.572Z"/><path d="M223.607,133.855a5.389,5.389,0,1,0,10.58-2.061c-2.62-13.442-5.42-26.1-8.324-37.609a7.67,7.67,0,0,1,4.807-9.072l9.035-3.345c1.154,4.069,2.863,10.316,4.9,18.431a5.389,5.389,0,1,0,10.453-2.628c-3.891-15.484-6.542-24.1-6.654-24.457a5.391,5.391,0,0,0-7.02-3.464L226.928,75a18.435,18.435,0,0,0-11.519,21.817C218.266,108.145,221.024,120.606,223.607,133.855Z"/><path d="M178.558,145.394c-.707,21.628-.416,44.453.864,67.839a5.392,5.392,0,0,0,5.377,5.1c.1,0,.2,0,.3-.008a5.388,5.388,0,0,0,5.087-5.676c-1.263-23.075-1.55-45.584-.854-66.9a9.281,9.281,0,0,1,9.318-9.011h8.565c-.038,5.865-.07,16.031.041,28.422a5.39,5.39,0,0,0,5.388,5.342h.049a5.392,5.392,0,0,0,5.343-5.439c-.174-19.549,0-33.5.006-33.644a5.392,5.392,0,0,0-5.39-5.46h-14A20.015,20.015,0,0,0,178.558,145.394Z"/><path d="M142.575,203.727a5.39,5.39,0,0,0,4.762-5.952c-1.506-13.553-2.19-25.877-2.5-33.83a6.522,6.522,0,0,1,6.516-6.785h7.287a386.972,386.972,0,0,0,3.625,45.41,5.389,5.389,0,1,0,10.674-1.5,377.245,377.245,0,0,1-3.6-49.344,5.392,5.392,0,0,0-5.39-5.351h-12.6a17.3,17.3,0,0,0-17.288,17.984c.316,8.128,1.016,20.729,2.557,34.6A5.387,5.387,0,0,0,142.575,203.727Z"/><path d="M295.225,127.56a5.386,5.386,0,0,0-1.554,3.856c.007.507.639,51.223-1.777,96.413a5.389,5.389,0,0,0,5.094,5.669c.1.006.2.008.294.008a5.389,5.389,0,0,0,5.376-5.1c1.969-36.834,1.93-77.266,1.839-91.669h8.617a9.229,9.229,0,0,1,9.265,8.964c.618,18.867.463,38.761-.461,59.131a5.391,5.391,0,0,0,10.77.488c.936-20.648,1.093-40.826.465-59.971a19.964,19.964,0,0,0-20.039-19.391H299.06A5.384,5.384,0,0,0,295.225,127.56Z"/><path d="M342.369,151.73a376.034,376.034,0,0,1-4.059,52.547,5.39,5.39,0,0,0,4.535,6.127,5.329,5.329,0,0,0,.8.06,5.392,5.392,0,0,0,5.325-4.595,385.837,385.837,0,0,0,4.1-48.709H360.6a6.283,6.283,0,0,1,6.285,6.51c-.309,8.02-.994,20.446-2.51,34.105a5.39,5.39,0,1,0,10.714,1.19c1.552-13.98,2.253-26.685,2.567-34.882a17.062,17.062,0,0,0-17.056-17.7H347.76A5.393,5.393,0,0,0,342.369,151.73Z"/><path d="M200.736,223.6a5.391,5.391,0,0,0,10,4.027c16.685-41.44,35.067-76.764,53.157-102.154a5.979,5.979,0,0,1,8.339-1.382l5.5,3.928A726.586,726.586,0,0,0,223.524,237.7a5.39,5.39,0,1,0,10.03,3.948c25.8-65.569,55.66-111.666,55.959-112.124a5.391,5.391,0,0,0-1.383-7.331l-9.634-6.877a16.755,16.755,0,0,0-23.381,3.9C236.274,145.657,217.978,180.776,200.736,223.6Z"/><path d="M370.813,218.485a18.2,18.2,0,0,0-17.64-2.553,124.773,124.773,0,0,0-35.47,21.334c-29.606,24.787-60.126,24.285-60.423,24.285-.111,0-.223,0-.334,0-.311.019-30.637.652-60.424-24.286a124.637,124.637,0,0,0-35.715-21.427,17.96,17.96,0,0,0-17.365,2.584,18.156,18.156,0,0,0-7.074,16.282l2.875,29.276a5.389,5.389,0,1,0,10.727-1.054L147.1,233.65a7.439,7.439,0,0,1,2.9-6.671,7.144,7.144,0,0,1,7-1.054,113.921,113.921,0,0,1,32.6,19.606c32.07,26.85,64.6,26.857,67.51,26.8,2.913.054,35.444.048,67.509-26.8a114.071,114.071,0,0,1,32.383-19.523,7.4,7.4,0,0,1,7.261,1.041,7.259,7.259,0,0,1,2.865,6.6l-10.4,105.9a5.389,5.389,0,0,0,4.838,5.891c.179.017.357.027.533.027a5.389,5.389,0,0,0,5.357-4.864l10.4-105.9A18.063,18.063,0,0,0,370.813,218.485Z"/><path d="M164.308,469.424h185.61a5.39,5.39,0,0,0,5.363-4.864l10.173-103.577c0-.034,0-.066,0-.1a5.43,5.43,0,0,0,0-.625c-.006-.148,0-.3-.017-.443a5.374,5.374,0,0,0-.112-.545c-.036-.161-.061-.324-.112-.479s-.131-.314-.2-.472-.135-.332-.223-.488c-.074-.133-.171-.256-.258-.384a5.05,5.05,0,0,0-.355-.49c-.023-.027-.037-.058-.061-.084-.08-.091-.177-.157-.263-.241a5.221,5.221,0,0,0-.445-.409c-.132-.1-.27-.188-.409-.278-.155-.1-.308-.2-.473-.285s-.324-.141-.488-.205-.316-.128-.484-.175a5.518,5.518,0,0,0-.583-.117c-.12-.02-.232-.059-.355-.071-.035,0-.068,0-.1,0a5.207,5.207,0,0,0-.637,0c-.142.006-.283,0-.422.015a5.541,5.541,0,0,0-.617.128c-.134.032-.272.052-.4.094a5.434,5.434,0,0,0-.559.236c-.135.061-.274.111-.4.183a14.4,14.4,0,0,0-.879.613c-.03.025-.063.041-.091.066-15.358,13.668-45.068,29.961-99.395,29.961-52.534,0-82.047-15.235-97.825-28.6L155.2,316.12a5.389,5.389,0,1,0-10.727,1.054L158.944,464.56A5.39,5.39,0,0,0,164.308,469.424Zm92.805-72.254c47.7,0,77.888-12.143,96.39-24.776l-8.472,86.25H169.194l-8.471-86.25C179.224,385.026,209.408,397.17,257.113,397.17Z"/><path d="M147.78,295.758a5.39,5.39,0,0,0,4.836-5.892L152.4,287.7a5.389,5.389,0,1,0-10.727,1.056l.213,2.166a5.389,5.389,0,0,0,5.357,4.862C147.422,295.784,147.6,295.775,147.78,295.758Z"/></svg>